{"title":"The Escapist 2008 LIMITED 720p BRRip.x264.Feel-Free","uid":6112975,"size":1952994045,"categoryP":"video","categoryS":"hd___movies","magnet":"?xt=urn:btih:e7ec7a57108234c2762b0e214710e22fe92ff279&amp;dn=The+Escapist+2008+LIMITED+720p+BRRip.x264.Feel-Free&amp;tr=udp%3A%2F%2Ftracker.openbittorrent.com%3A80&amp;tr=udp%3A%2F%2Fopen.demonii.com%3A1337&amp;tr=udp%3A%2F%2Ftracker.coppersurfer.tk%3A6969&amp;tr=udp%3A%2F%2Fexodus.desync.com%3A6969","seeders":2,"leechers":2,"uploader":"neon","files":-1,"time":1295430957,"description":"Genre:Crime | Drama | Thriller\nLanguage:English\n &lt;a href=&quot; http://www.imdb.com/title/tt0961728/&quot; rel=&quot;nofollow&quot; target=&quot;_NEW&quot;&gt; http://www.imdb.com/title/tt0961728/&lt;/a&gt;\nSource:BluRay x264-DnB\n &lt;a href=&quot;\nhttp://shareimage.org/images/nyxk5gt00i2vrmhglwm7.png&quot; rel=&quot;nofollow&quot; target=&quot;_NEW&quot;&gt;\nhttp://shareimage.org/images/nyxk5gt00i2vrmhglwm7.png&lt;/a&gt; &lt;a href=&quot;\nhttp://shareimage.org/images/ivnlwr5oes540mj235n3.png&quot; rel=&quot;nofollow&quot; target=&quot;_NEW&quot;&gt;\nhttp://shareimage.org/images/ivnlwr5oes540mj235n3.png&lt;/a&gt; &lt;a href=&quot;\nhttp://shareimage.org/images/1bdpd3ummizxtzkonp.png&quot; rel=&quot;nofollow&quot; target=&quot;_NEW&quot;&gt;\nhttp://shareimage.org/images/1bdpd3ummizxtzkonp.png&lt;/a&gt;\n\n\nFormat : Matroska\nFile size : 1.81 GiB\nDuration : 1h 41mn\nOverall bit rate : 2 556 Kbps\n\n\nVideo\nFormat settings, CABAC : Yes\nFormat settings, ReFrames : 4 frames\nCodec ID : V_MPEG4/ISO/AVC\nDuration : 1h 41mn\nBit rate : 2 200 Kbps\nWidth : 1 280 pixels\nHeight : 688 pixels\nDisplay aspect ratio : 1.860\nFrame rate mode : Variable\nFrame rate : 24.000 fps\nColor space : YUV\nChroma subsampling : 4:2:0\nBit depth : 8 bits\nScan type : Progressive\nBits/(Pixel*Frame) : 0.104\nStream size : 1.50 GiB (83%)\nWriting library : x264\n\n\nAudio\nID : 2\nFormat : AC-3\nFormat/Info : Audio Coding 3\nMode extension : CM (complete main)\nCodec ID : A_AC3\nDuration : 1h 41mn\nBit rate mode : Constant\nBit rate : 384 Kbps\nChannel(s) : 6 channels\nChannel positions : Front: L C R, Side: L R, LFE\nSampling rate : 48.0 KHz\nBit depth : 16 bits\nVideo delay : -1mn 5s\nStream size : 279 MiB (15%)\nLanguage : English\n\n\nPlot:\nFrank Perry is an institutionalized convict fourteen years into a life sentence without parole. When his estranged daughter falls ill.\n\nTRAILER: http://www.imdb.com/video/imdb/vi3749118745/\n\n","torrent":{"xt":"urn:btih:e7ec7a57108234c2762b0e214710e22fe92ff279","amp;dn":"The+Escapist+2008+LIMITED+720p+BRRip.x264.Feel-Free","amp;tr":["udp%3A%2F%2Ftracker.openbittorrent.com%3A80","udp%3A%2F%2Fopen.demonii.com%3A1337","udp%3A%2F%2Ftracker.coppersurfer.tk%3A6969","udp%3A%2F%2Fexodus.desync.com%3A6969"],"infoHash":"e7ec7a57108234c2762b0e214710e22fe92ff279","infoHashBuffer":{"type":"Buffer","data":[231,236,122,87,16,130,52,194,118,43,14,33,71,16,226,47,233,47,242,121]},"announce":[],"urlList":[]}}